<svg width="100" height="100" viewBox="0 0 100 100" fill="none" xmlns="http://www.w3.org/2000/svg">
<path d="M11.9336 43.75C8.78906 43.75 6.25 41.2109 6.25 38.0664C6.25 37.6953 6.28906 37.3438 6.36719 36.9727C7.40234 32.8711 15.3906 6.25 50 6.25C84.6094 6.25 92.5977 32.8711 93.6328 36.9727C93.7305 37.3438 93.75 37.6953 93.75 38.0664C93.75 41.2109 91.2109 43.75 88.0664 43.75H11.9336ZM28.125 25C28.125 24.1712 27.7958 23.3763 27.2097 22.7903C26.6237 22.2042 25.8288 21.875 25 21.875C24.1712 21.875 23.3763 22.2042 22.7903 22.7903C22.2042 23.3763 21.875 24.1712 21.875 25C21.875 25.8288 22.2042 26.6237 22.7903 27.2097C23.3763 27.7958 24.1712 28.125 25 28.125C25.8288 28.125 26.6237 27.7958 27.2097 27.2097C27.7958 26.6237 28.125 25.8288 28.125 25ZM75 28.125C75.8288 28.125 76.6237 27.7958 77.2097 27.2097C77.7958 26.6237 78.125 25.8288 78.125 25C78.125 24.1712 77.7958 23.3763 77.2097 22.7903C76.6237 22.2042 75.8288 21.875 75 21.875C74.1712 21.875 73.3763 22.2042 72.7903 22.7903C72.2042 23.3763 71.875 24.1712 71.875 25C71.875 25.8288 72.2042 26.6237 72.7903 27.2097C73.3763 27.7958 74.1712 28.125 75 28.125ZM53.125 18.75C53.125 17.9212 52.7958 17.1263 52.2097 16.5403C51.6237 15.9542 50.8288 15.625 50 15.625C49.1712 15.625 48.3763 15.9542 47.7903 16.5403C47.2042 17.1263 46.875 17.9212 46.875 18.75C46.875 19.5788 47.2042 20.3737 47.7903 20.9597C48.3763 21.5458 49.1712 21.875 50 21.875C50.8288 21.875 51.6237 21.5458 52.2097 20.9597C52.7958 20.3737 53.125 19.5788 53.125 18.75ZM3.125 59.375C3.125 54.1992 7.32422 50 12.5 50H87.5C92.6758 50 96.875 54.1992 96.875 59.375C96.875 64.5508 92.6758 68.75 87.5 68.75H12.5C7.32422 68.75 3.125 64.5508 3.125 59.375ZM6.25 78.125C6.25 76.4062 7.65625 75 9.375 75H90.625C92.3438 75 93.75 76.4062 93.75 78.125V81.25C93.75 88.1445 88.1445 93.75 81.25 93.75H18.75C11.8555 93.75 6.25 88.1445 6.25 81.25V78.125Z" fill="#2B1000"/>
</svg>
