<svg width="100" height="248" viewBox="0 0 100 248" fill="none" xmlns="http://www.w3.org/2000/svg">
<g clip-path="url(#clip0_101_77)">
<path d="M95.0881 105.283C93.5126 100.927 91.381 96.7562 90.6396 92.1223C89.2494 83.5959 90.4542 74.4207 91.0103 65.8943C91.8444 54.0315 92.5858 42.1687 93.3272 30.3058C96.4783 29.0083 97.5904 26.228 98.7953 21.8721C100.278 16.5894 101.205 11.7701 96.4783 7.87765C91.4737 3.7998 84.8008 2.31695 78.5914 1.20481C72.3819 0.0926644 65.153 -1.01948 59.1289 1.6682C54.495 3.70712 52.7341 8.15569 52.178 12.975C51.7146 17.2382 51.5293 21.9648 55.2364 24.2817C52.178 34.7544 49.1196 45.1344 46.1539 55.607C44.115 62.8359 42.0761 70.0649 39.4811 77.1084C36.052 86.1909 28.7304 92.3077 23.6331 100.371C12.9751 117.053 8.52649 136.145 8.34114 155.885C8.34114 161.075 8.52649 166.265 8.80453 171.455C9.17524 177.201 9.82399 182.947 8.15578 188.601C5.83882 196.293 1.66829 203.244 0.463474 211.307C-0.741346 219.648 0.0927597 230.677 6.95096 236.515C12.697 241.427 20.9454 241.613 28.0816 240.13C30.7693 242.447 33.8277 244.208 37.1641 245.042C41.4273 246.061 47.5441 245.69 51.9927 243.281C57.1827 246.895 64.4116 248.934 69.9723 245.505C76.0891 241.705 79.7962 233.642 81.3717 226.877C83.1326 219.37 82.0205 212.048 82.0205 204.541C82.0205 194.81 86.7471 186.562 90.2688 177.664C97.6831 158.851 101.668 139.481 98.5172 119.37C97.6831 114.55 96.6637 109.824 95.0881 105.283ZM76.089 56.9045C72.7526 56.1631 69.3235 56.8118 65.9871 55.7924C61.9093 54.5876 57.646 52.0852 53.4755 53.1974C54.9584 48.1001 56.4412 43.0028 57.8314 37.8128C63.2068 38.8322 67.748 41.8906 73.3087 42.076C76.5524 42.1687 79.6108 41.8906 82.7619 42.8174C84.1521 43.1881 85.1715 43.6515 86.2837 43.8369C86.0056 48.6561 85.6349 53.3827 85.3569 58.202C85.3569 58.6654 85.2642 59.0361 85.2642 59.4995C81.8351 59.5922 79.3328 57.5533 76.089 56.9045ZM61.2605 25.9499C62.6507 26.3207 63.7628 26.9694 65.153 27.7108C66.0798 28.2669 66.9139 28.7303 68.026 28.823C69.6016 29.0083 70.9917 27.8035 72.4746 28.0815C74.6989 29.4717 76.6451 30.8619 79.4255 30.4912C81.3717 30.3058 82.6692 30.0278 84.6155 30.4912C85.5423 30.6765 86.2837 30.8619 87.0251 30.9546C86.8397 34.013 86.6544 37.0713 86.3764 40.0371C84.2447 40.0371 81.3717 38.5542 79.4255 38.3688C76.2744 38.0908 73.0307 38.7396 69.9723 37.9055C65.8017 36.7933 62.6507 34.9397 58.6655 34.9397C59.4996 31.974 60.3337 29.0083 61.2605 25.9499ZM61.1678 7.59961C65.0603 5.37533 71.1771 6.3948 75.3476 7.04354C79.1474 7.59961 82.9473 8.34104 86.5617 9.63854C88.4153 10.2873 90.6396 11.1214 92.1224 12.5116C94.5321 14.6432 93.7906 16.2187 93.0492 18.9064C92.6785 20.1112 92.4931 22.7989 91.7517 23.8183C91.4737 24.189 91.103 24.4671 90.7322 24.5598C90.2688 24.5598 89.7128 24.6524 89.2494 24.8378C87.8592 24.8378 86.2837 24.189 85.1715 23.911C83.6887 23.5403 82.6692 23.4476 81.0937 23.633C78.7767 23.8183 77.6646 23.633 75.811 22.8916C75.4403 22.5208 74.8842 22.1501 74.1428 22.0574C72.2892 21.6867 71.4551 22.1501 69.6942 22.1501C67.748 22.1501 67.47 21.316 65.7091 20.4819C64.3189 19.8332 62.9287 19.7405 61.4459 19.5551C61.0752 19.4624 60.7044 19.4624 60.3337 19.3698C59.963 19.1844 59.5923 19.0917 59.1289 19.0917C58.3875 18.721 58.2021 18.0723 58.2021 16.4041C58.2021 13.4384 58.3875 9.26783 61.1678 7.59961ZM40.0372 89.5273C42.7248 86.0055 44.3004 82.113 45.8759 77.9425C48.2855 71.455 50.1391 64.7822 51.9927 58.1093C52.178 57.3679 52.3634 56.7192 52.6414 55.9777C59.3143 55.1436 64.9676 59.6849 71.5478 60.1483C75.0696 60.3336 77.6646 61.5384 81.001 62.6506C82.3912 63.114 83.6887 63.2993 84.8935 63.2067C83.874 75.3475 82.2058 88.3225 86.2837 99.6293C87.0251 101.668 87.7665 103.8 88.4153 105.839C70.343 103.8 52.6414 100.185 35.1252 95.3661C36.7934 93.5125 38.5543 91.5662 40.0372 89.5273ZM74.8842 226.413C73.7721 230.677 71.7332 234.94 68.6748 238.091C65.2457 241.705 60.3337 241.057 56.5339 238.647C56.6266 238.462 56.7193 238.369 56.8119 238.183C57.368 236.793 56.7193 234.662 54.8657 234.847C52.178 235.032 50.5098 236.33 48.1929 237.535C45.0418 239.203 41.7054 239.481 38.2763 238.554C32.5302 236.979 28.6377 233.828 24.6525 229.564C23.1697 227.989 20.9454 230.028 21.7795 231.789C22.2429 232.715 22.7063 233.55 23.2624 234.476C17.4236 235.032 11.2142 233.828 8.43382 228.082C4.26329 219.462 6.58025 209.175 10.1947 200.834C12.9751 194.532 15.292 188.322 15.5701 181.464C35.5886 187.674 56.3486 191.566 77.2012 193.791C76.3671 196.849 75.7183 199.907 75.7183 203.244C75.6257 211.029 77.0158 218.721 74.8842 226.413ZM79.3328 187.581C79.1474 187.488 78.8694 187.488 78.5914 187.396C57.1827 185.171 36.1447 180.908 15.3847 175.162C15.1067 166.914 14.3652 158.758 14.7359 150.51C15.4774 132.808 20.482 114.829 30.9547 100.371C50.2318 106.487 70.2503 110.38 90.3615 112.419C91.5663 116.775 92.4931 121.223 92.9565 125.95C93.3272 130.398 93.4199 134.94 93.1419 139.388C86.5617 132.345 78.128 126.506 68.5821 125.023C60.1484 123.818 50.8805 127.155 48.0075 135.867C44.9491 145.227 50.2318 155.7 55.9778 162.836C62.6507 171.084 72.2892 177.016 82.7619 178.962C82.5765 179.518 82.2985 179.981 82.1131 180.538C81.279 183.04 80.2596 185.357 79.3328 187.581ZM85.2642 173.216C76.7378 172.104 68.6748 167.377 62.9287 161.26C57.9241 155.885 52.7341 147.637 53.8462 139.944C54.8657 132.623 62.4653 130.398 68.8601 131.696C78.3133 133.55 86.7471 140.686 92.3078 148.285C91.9371 150.417 91.5663 152.456 91.103 154.588C89.6201 160.89 87.5812 167.099 85.2642 173.216Z" fill="#FEC51C"/>
<path d="M58.7581 87.3955C60.519 88.6003 62.7433 88.3223 64.3188 87.0248C67.5625 84.4298 66.7284 78.313 62.2799 77.8496C61.3531 77.757 60.797 79.1471 61.5384 79.7032C62.9286 80.8153 64.0408 82.2982 62.9286 84.1518C61.8165 86.098 59.3142 85.6346 59.0361 83.4103C58.9435 82.5762 57.646 81.9275 57.2752 82.9469C56.5338 84.5225 57.1826 86.376 58.7581 87.3955Z" fill="#FEC51C"/>
<path d="M81.3716 53.7535C80.9082 54.1242 80.9082 54.773 81.0936 55.1437V55.2364C81.6497 56.2558 83.2252 55.8851 83.4105 54.773C83.5959 53.5682 82.2057 52.9194 81.3716 53.7535Z" fill="#FEC51C"/>
<path d="M76.6451 52.6414C75.1622 52.6414 75.1622 54.9583 76.6451 54.9583C78.128 54.9583 78.128 52.6414 76.6451 52.6414Z" fill="#FEC51C"/>
<path d="M77.6646 48.9341C76.089 48.9341 76.089 51.4364 77.6646 51.4364C79.2401 51.3437 79.2401 48.9341 77.6646 48.9341Z" fill="#FEC51C"/>
<path d="M80.8156 49.8611C79.4254 49.8611 79.4254 52.0854 80.8156 52.0854C82.2984 51.9927 82.2984 49.8611 80.8156 49.8611Z" fill="#FEC51C"/>
<path d="M79.5182 45.0417C78.6841 44.3003 77.3866 44.5783 77.1086 45.5978C76.8305 46.5245 77.7573 47.7294 78.7768 47.266C78.7768 47.266 78.8695 47.266 78.8695 47.1733C79.3329 46.9879 79.6109 46.7099 79.7963 46.2465C79.9816 45.8758 79.8889 45.4124 79.5182 45.0417Z" fill="#FEC51C"/>
<path d="M72.8453 102.132C74.3281 101.761 75.9963 100.185 76.6451 98.7951C77.3865 97.0343 76.2744 95.088 74.8842 93.9759C74.1428 93.4198 72.9379 94.3466 73.3086 95.1807C73.5867 95.8294 74.3281 96.8489 74.1428 97.4976C73.9574 97.961 73.0306 98.7025 72.4745 98.7951C70.899 99.2585 70.8063 97.4976 70.7137 96.4782C70.621 95.5514 69.6942 94.9027 68.8601 95.366C67.1919 96.3855 67.0065 98.5171 67.9333 100.185C68.9528 101.761 70.9917 102.595 72.8453 102.132Z" fill="#FEC51C"/>
<path d="M21.8721 203.8C21.3161 203.985 20.9454 204.727 21.3161 205.19C21.7795 205.839 22.5209 206.117 22.9843 206.858C23.633 207.785 23.633 208.897 23.077 209.824C22.5209 210.565 21.7795 210.936 21.038 210.287C20.3893 209.731 20.1113 208.434 19.8332 207.692C19.4625 206.858 18.0723 206.302 17.6089 207.414C16.6822 209.546 17.1455 211.77 19.0918 213.253C20.8527 214.55 23.1696 214.272 24.7452 212.882C26.3207 211.492 26.5987 209.082 25.95 207.136C25.3012 205.375 23.7257 203.151 21.8721 203.8Z" fill="#FEC51C"/>
<path d="M39.4812 194.903C38.7397 195.181 38.9251 196.293 39.4812 196.664C40.408 197.312 41.2421 197.498 41.4274 198.795C41.5201 199.629 41.2421 200.741 40.686 201.39C40.3153 201.854 39.2031 202.688 38.5544 202.317C37.9983 202.039 37.7203 200.093 37.5349 199.537C37.3496 198.61 35.774 198.332 35.4033 199.259C34.3839 201.483 34.1985 204.078 36.7008 205.468C38.8324 206.673 41.5201 205.746 42.9103 203.893C44.3005 202.132 44.6712 199.907 44.0224 197.776C43.4663 196.015 41.6128 194.069 39.4812 194.903Z" fill="#FEC51C"/>
<path d="M60.1485 225.023C59.2217 225.023 58.2949 225.857 58.2949 226.877C58.2949 227.896 59.129 228.73 60.1485 228.73C61.0753 228.73 62.0021 227.896 62.0021 226.877C61.9094 225.857 61.168 225.023 60.1485 225.023Z" fill="#FEC51C"/>
<path d="M63.67 222.799C63.5773 222.799 63.5773 222.799 63.4847 222.706C62.9286 222.521 62.1872 222.984 62.0018 223.54C61.8165 224.096 62.1872 224.838 62.8359 225.023C62.9286 225.023 62.9286 225.023 63.0213 225.023C64.5968 225.301 65.0602 223.262 63.67 222.799Z" fill="#FEC51C"/>
<path d="M62.0018 221.038C62.5579 220.482 62.4652 219.463 61.7238 219.092C60.519 218.443 59.2215 220.019 60.2409 221.038C60.7043 221.502 61.4457 221.502 62.0018 221.038Z" fill="#FEC51C"/>
<path d="M60.7972 202.409C59.8704 202.688 59.7777 204.078 60.7972 204.356C61.6313 204.634 61.8166 205.283 61.8166 206.024C61.8166 206.487 61.8166 207.136 61.4459 207.414C61.0752 207.692 60.3338 207.599 59.9631 207.507C59.5923 207.414 59.3143 207.136 59.0363 206.673C58.2948 205.653 56.9047 206.024 56.7193 207.321C56.534 209.175 57.5534 210.473 59.407 210.658C61.0752 210.843 62.9288 210.658 63.9482 209.268C65.4311 207.229 64.2263 201.39 60.7972 202.409Z" fill="#FEC51C"/>
<path d="M79.1474 67.748C79.4254 68.6748 80.5376 68.6748 81.0009 68.0261L81.0936 67.9334C81.557 67.2847 81.0009 66.3579 80.2595 66.2652C79.5181 66.1725 78.8693 66.9139 79.0547 67.6554C79.1474 67.6554 79.1474 67.748 79.1474 67.748Z" fill="#FEC51C"/>
<path d="M76.089 65.3381C76.5524 64.7821 76.5524 64.3187 76.3671 63.7626V63.6699C76.1817 63.2065 75.533 62.9285 74.9769 63.0212C74.3282 63.1139 73.8648 63.5772 73.7721 64.226C73.5867 65.4308 75.1623 66.3576 76.089 65.3381Z" fill="#FEC51C"/>
<path d="M75.4403 67.2847C74.0502 67.2847 74.0502 69.4163 75.4403 69.4163C76.8305 69.4163 76.8305 67.2847 75.4403 67.2847Z" fill="#FEC51C"/>
<path d="M25.8573 116.775C18.7211 129.842 15.9407 146.339 17.5163 161.075C17.7016 162.465 19.7406 162.558 19.8332 161.075C20.0186 145.783 22.7063 131.974 27.9889 117.702C28.4523 116.497 26.5061 115.663 25.8573 116.775Z" fill="#FEC51C"/>
<path d="M46.1539 88.3227C49.3976 82.8547 53.8462 75.255 53.1047 68.6749C53.0121 67.5627 51.2512 67.0993 50.9731 68.3968C49.583 75.0697 46.4319 81.0938 44.1149 87.4886C43.7442 88.6007 45.5051 89.3422 46.1539 88.3227Z" fill="#FEC51C"/>
<path d="M62.6508 11.8628C63.1142 10.4726 65.5238 11.0287 66.5433 10.658C67.9334 10.1019 67.8408 8.43367 66.5433 7.8776C65.2458 7.32153 63.4849 7.69224 62.2801 8.43367C61.2606 8.98974 60.3338 10.0092 60.0558 11.214C59.7777 12.7896 62.0947 13.4383 62.6508 11.8628Z" fill="#FEC51C"/>
<path d="M70.0651 10.936C71.8259 10.936 71.8259 8.24829 70.0651 8.24829C68.3042 8.24829 68.3042 10.936 70.0651 10.936Z" fill="#FEC51C"/>
<path d="M62.28 180.445C54.2169 179.055 46.0612 178.035 37.9982 176.46C36.608 176.181 35.9593 178.313 37.4422 178.591C45.5052 180.352 53.7535 182.02 62.0946 182.576C63.1141 182.576 63.3921 180.63 62.28 180.445Z" fill="#FEC51C"/>
<path d="M68.2113 180.816C67.9333 180.63 67.4699 180.63 67.0992 180.723C66.8212 180.723 66.6358 180.723 66.3578 180.816C65.8017 181.001 65.431 181.742 65.6163 182.299C65.8944 182.947 66.3578 183.411 67.0065 183.503C67.6553 183.596 68.3967 183.318 68.6747 182.669C68.9528 182.02 68.8601 181.186 68.2113 180.816Z" fill="#FEC51C"/>
</g>
<defs>
<clipPath id="clip0_101_77">
<rect width="100" height="247.173" fill="white"/>
</clipPath>
</defs>
</svg>
