<svg width="100" height="175" viewBox="0 0 100 175" fill="none" xmlns="http://www.w3.org/2000/svg">
<g clip-path="url(#clip0_101_43)">
<path d="M98.7483 58.4981C95.3228 53.2939 88.0105 50.8564 82.3452 48.8802C81.0935 46.9039 79.5125 45.1911 77.3386 44.0712C71.8709 41.1726 65.2174 40.1186 59.1568 39.1305C58.498 33.0699 57.444 27.0093 56.5217 21.0145C55.9289 17.2596 55.336 13.4388 54.6113 9.68385C54.0184 6.65354 53.3597 3.55737 50.5929 1.71283C47.2332 -0.461079 42.6877 5.36212e-05 38.8011 0.0659298C34.7826 0.131806 30.7642 0.131806 26.7457 0.197682C21.4756 0.329434 19.4335 5.27015 20.1581 10.0791C20.8169 14.4928 24.1107 15.3492 27.9974 15.3492C30.5007 15.3492 33.0039 15.2833 35.5731 15.2174C36.4295 15.2174 37.8129 14.9539 38.6034 15.2174C40.2503 15.7445 40.3821 18.2477 40.6456 19.6311C41.7655 25.4941 42.556 31.423 43.2148 37.286C38.0764 36.9566 32.4111 36.6272 27.4704 38.1423C25.3623 38.8011 23.4519 39.9869 21.7391 41.4362C21.6733 41.4362 21.6732 41.4362 21.6074 41.4362C16.2714 42.1608 9.9473 42.7537 5.27009 45.7181C0.395254 48.8143 -2.32102e-06 54.809 -2.32102e-06 60.0791C-2.32102e-06 62.3848 -0.131755 65.1516 1.18577 67.1279C1.97628 68.4454 3.29381 69.4994 4.61133 70.4217C5.00659 89.1305 5.66535 107.773 6.58761 126.482C7.04875 135.178 7.444 143.874 8.03689 152.503C8.49802 159.223 12.1871 163.571 17.8524 167.062C30.3689 174.638 48.8801 176.878 62.5165 171.08C68.5771 168.511 72.5955 164.493 74.7036 158.235C77.0092 151.515 78.3926 144.401 79.9078 137.484C84.058 118.379 88.6693 99.3413 92.6877 80.1713C94.7958 79.2491 96.6403 77.9974 97.6284 76.1529C99.0777 73.5837 99.2095 69.7629 99.6047 66.8643C100.066 64.0317 100.395 61.0014 98.7483 58.4981ZM7.24637 50.9223C8.10276 49.473 9.74967 48.419 11.726 47.7603C13.7022 47.1674 15.8762 46.838 17.8524 46.5745C17.6548 46.9039 17.4572 47.2991 17.2595 47.6944C15.2174 52.0422 19.17 54.4796 22.7273 55.9289C28.195 58.1687 34.2556 59.3545 40.0527 60.3426C50.3953 62.1213 60.9354 63.0435 71.4097 62.6483C76.0211 62.4506 86.693 62.5165 84.7826 55.2043C84.7167 55.0066 84.6508 54.809 84.6508 54.6114C84.9144 54.7431 85.2437 54.809 85.5072 54.9408C90.7115 57.3782 97.892 61.726 90.975 65.0198C84.1238 68.3136 75.2964 68.3136 67.9183 68.3795C58.1686 68.5113 48.419 67.7207 38.8011 65.9421C29.776 64.1634 19.9605 61.9895 11.8577 57.3782C9.81554 56.1924 5.59947 53.8209 7.24637 50.9223ZM29.8419 42.8196C31.0277 42.556 32.2134 42.4902 33.3992 42.3584C36.8248 42.1608 40.2503 42.1608 43.7418 42.3584C43.7418 42.4902 43.7418 42.6219 43.8076 42.7537C43.5441 42.6878 43.2806 42.6219 43.083 42.556C41.4361 42.1608 40.8432 44.4665 42.4242 45.0593C45.5204 46.2451 48.8142 47.1015 52.0422 47.5626C54.6772 47.9579 57.7734 48.5508 60.2767 47.5626C61.3966 47.1015 61.3966 45.784 60.2767 45.3228C60.079 45.257 59.8814 45.1911 59.6838 45.1252C59.7497 44.9276 59.7497 44.73 59.7497 44.5323C59.7497 44.4006 59.7497 44.2688 59.7497 44.203C62.78 44.73 65.7444 45.3887 68.7088 46.1792C70.6192 46.7062 73.5837 47.1015 75.0988 48.419C75.8234 49.0778 76.4822 48.7484 75.0988 49.473C74.3083 49.8683 72.9249 49.8024 72.0685 49.8683C70.4875 50.0001 68.9065 50.0659 67.3913 50.1318C62.6482 50.3294 57.9051 50.0659 53.2279 49.6048C48.419 49.1437 43.61 48.419 38.8669 47.2991C35.9684 46.6404 32.5428 46.1792 29.8419 44.8617C27.668 43.7418 28.0632 43.2148 29.8419 42.8196ZM55.0725 44.4665C54.1502 44.4006 53.2279 44.4006 52.3715 44.2688C50.9881 44.1371 49.6706 43.8736 48.3531 43.6759C48.3531 43.6101 48.3531 43.6101 48.3531 43.5442C47.8261 37.6153 47.1014 31.6865 46.2451 25.8235C45.718 22.3321 45.6522 17.062 43.61 13.7023C44.664 13.5047 45.6522 13.2412 46.7062 12.9777C48.0237 12.6483 49.2095 12.5165 50.4611 12.4506C50.9881 15.2833 51.4493 18.116 51.9104 20.9487C53.1621 28.7879 54.5454 36.6272 55.0725 44.4665ZM48.8801 6.58767C49.473 7.50993 49.7365 8.62983 50 9.8156C47.9578 9.74972 45.718 10.4744 43.7418 11.2649C44.4664 10.4085 45.2569 9.61797 45.9157 8.95921C46.7721 7.97107 47.8261 7.31231 48.8801 6.58767ZM46.3768 4.94076C45.2569 5.73128 44.2688 6.7853 43.4783 7.70756C42.9512 8.30045 42.3584 8.95921 41.8314 9.74972C41.8972 7.97107 42.0949 6.12654 42.6877 4.47963C44.0053 4.47963 45.2569 4.61138 46.3768 4.94076ZM32.0817 10.8037C30.303 10.8696 28.5244 10.8696 26.8116 10.8696C24.44 10.8037 23.8472 8.49808 24.9012 6.25829C25.8234 4.41376 27.5362 4.80901 29.3808 4.80901C31.357 4.80901 33.3992 4.74314 35.3755 4.74314C36.8248 4.74314 38.4058 4.61138 39.9868 4.54551C39.4598 6.58767 39.3939 8.76158 39.5916 10.8696C37.1541 10.2767 34.2556 10.7379 32.0817 10.8037ZM25.3623 44.4006C26.5481 47.0356 33.3333 48.5508 34.9802 48.946C45.0593 51.4493 55.5336 52.8986 66.0079 52.6351C67.523 52.5692 75.8234 52.7669 78.0632 50.4612C78.2609 50.7906 78.4585 51.0541 78.6561 51.4493C79.1173 52.5033 80.9618 55.6654 80.7642 56.5877C80.7642 56.5218 79.1173 57.1147 78.3267 57.2464C76.614 57.6417 74.9012 57.7734 73.1884 57.8393C68.6429 58.1028 64.0316 58.0369 59.4862 57.7734C48.8142 57.2464 38.0764 55.7313 27.8656 52.701C25.8234 52.1081 20.9486 51.3176 22.0026 48.5508C22.5296 47.1015 23.913 45.5205 25.3623 44.4006ZM46.8379 169.631C38.9987 169.697 30.9618 168.314 23.8472 165.086C20.8827 163.702 17.9842 162.055 15.6785 159.684C13.0435 156.983 12.6482 154.216 12.5165 150.659C12.1212 142.556 11.5942 134.519 11.1331 126.416C10.7378 118.577 10.4084 110.738 10.079 102.899C22.2003 127.8 45.3887 146.772 68.3136 161.265C67.9183 161.858 67.523 162.385 66.996 162.846C62.1871 168.116 53.6232 169.565 46.8379 169.631ZM77.8656 125.56C76.8116 130.567 75.7576 135.573 74.6377 140.58C62.253 131.752 50.2635 122.398 39.7233 111.397C34.1897 105.6 29.1173 99.473 24.3742 93.0172C21.805 89.5257 19.2358 85.9684 16.8643 82.2794C15.2174 79.7761 13.7681 77.141 12.253 74.506C16.1397 76.1529 20.2899 77.3387 24.3742 78.3927C37.4176 81.8841 51.054 83.6628 64.5586 83.8604C71.0145 83.9921 77.4045 83.5969 83.7286 82.477C84.9144 82.2794 86.2978 82.0159 87.6812 81.7524C84.6509 96.3769 81.0277 110.935 77.8656 125.56ZM86.693 77.2728C74.0448 80.3031 60.7378 79.6443 47.892 78.195C41.1726 77.4704 34.5191 76.2846 27.9974 74.6377C22.0026 73.1885 15.8761 71.5416 10.4084 68.5771C7.50988 67.062 5.00659 65.8103 4.61133 62.3189C4.34782 60.0132 4.34782 57.0488 4.87483 54.5455C6.38998 57.5758 10.079 59.4862 12.9776 60.8696C18.3136 63.3729 24.0448 65.0857 29.7101 66.4691C42.029 69.4994 54.809 70.8828 67.5231 70.8169C72.7931 70.751 78.0632 70.4875 83.2675 69.6311C86.8906 69.0383 91.0408 68.2477 94.137 66.0738C94.664 65.6786 95.1252 65.3492 95.4545 64.9539C95.3228 67.589 94.7958 70.9487 94.0053 73.1885C93.0171 76.0211 89.1963 76.614 86.693 77.2728Z" fill="#2B1000"/>
<path d="M81.6206 90.2504C77.9974 104.084 74.4401 118.116 71.8051 132.148C71.6074 133.202 73.1226 133.663 73.452 132.609C77.3387 118.841 80.3031 104.677 83.2016 90.6456C83.4651 89.6575 81.8841 89.2622 81.6206 90.2504Z" fill="#2B1000"/>
<path d="M15.0198 150C14.4269 152.701 15.1515 155.995 16.7984 158.234C17.2596 158.827 18.4453 158.761 18.3795 157.773C18.2477 155.138 17.5231 152.174 16.4691 149.736C16.1397 149.209 15.1515 149.341 15.0198 150Z" fill="#2B1000"/>
<path d="M15.1516 146.706C15.1516 146.772 15.1516 146.838 15.1516 146.904C15.1516 146.97 15.1516 147.036 15.2174 147.102C15.2174 147.102 15.2174 147.102 15.2174 147.167C15.7445 147.892 16.7985 147.826 17.1279 146.904C17.1937 146.706 17.1937 146.509 17.1279 146.245C16.9961 145.718 16.3373 145.323 15.8103 145.521C15.4151 145.652 15.1516 145.916 15.0857 146.311C15.0857 146.311 15.0857 146.311 15.0857 146.377V146.443C15.0857 146.509 15.0857 146.575 15.1516 146.706Z" fill="#2B1000"/>
<path d="M25.0988 71.0803C21.805 70.224 18.5771 69.3017 15.4151 68.1159C14.4928 67.7865 14.0975 69.2358 15.0198 69.6311C18.1819 70.8827 21.4098 71.8709 24.7695 72.5296C25.6259 72.7272 26.0211 71.3438 25.0988 71.0803Z" fill="#2B1000"/>
<path d="M48.6825 17.9843C49.473 22.8591 50.2635 27.734 50.9882 32.6088C51.1199 33.3993 52.4375 33.2017 52.4375 32.4112C52.1739 27.4046 51.5152 22.398 50.2635 17.5232C50 16.535 48.4849 16.9962 48.6825 17.9843Z" fill="#2B1000"/>
</g>
<defs>
<clipPath id="clip0_101_43">
<rect width="100" height="174.374" fill="white"/>
</clipPath>
</defs>
</svg>
