<svg width="100" height="80" viewBox="0 0 100 80" fill="none" xmlns="http://www.w3.org/2000/svg">
<g clip-path="url(#clip0_101_30)">
<path d="M51.9867 11.6366C53.1693 13.103 55.6764 15.1371 57.7104 14.3802C59.7918 13.5761 58.8457 10.9744 57.8996 9.64986C56.717 7.99423 54.4465 5.91287 52.2232 6.38591C49.5742 6.95355 50.7568 10.0756 51.8448 11.4947C51.8921 11.542 51.9394 11.5893 51.9867 11.6366ZM53.3112 8.23075C54.6357 8.56188 55.8183 9.79177 56.5278 10.8798C56.9063 11.4474 57.7104 12.8192 56.4332 12.5827C55.2506 12.3462 54.2099 11.4001 53.4058 10.5013C53.0274 9.98099 52.5543 9.41334 52.4124 8.75109C52.3178 8.04154 52.6962 8.08884 53.3112 8.23075Z" fill="#FEC51C"/>
<path d="M21.6651 33.0652C30.0851 37.3225 39.0728 40.0188 48.5336 40.3027C49.1958 40.3027 49.385 39.2147 48.6755 39.1201C39.6878 37.7483 30.6055 35.7615 22.2327 32.0245C21.5705 31.6934 20.9555 32.6868 21.6651 33.0652Z" fill="#FEC51C"/>
<path d="M35.4305 12.6772C35.5251 12.6772 35.6197 12.6299 35.667 12.5826C37.6065 12.1569 40.8231 10.927 41.1543 8.75103C41.4854 6.43315 38.458 6.19663 36.8496 6.43315C34.6737 6.71697 31.2678 7.75765 30.5109 10.1228C29.5649 13.0084 33.7276 12.9611 35.4305 12.6772ZM32.3558 10.4067C32.4031 10.0755 33.2545 9.55519 33.5384 9.41328C34.721 8.65642 36.4712 8.18339 37.8903 8.18339C38.1741 8.18339 39.0256 8.13608 39.2148 8.41991C39.4513 8.79834 38.4579 9.41328 38.1741 9.6025C37.2281 10.2647 36.1401 10.5959 35.0048 10.8797C34.9575 10.8797 34.9102 10.8797 34.9102 10.8797C34.579 10.9743 32.2139 11.4473 32.3558 10.4067Z" fill="#FEC51C"/>
<path d="M38.3632 16.5563C38.1267 18.7322 40.6338 20.4352 42.4314 21.2393C42.4787 21.2867 42.5733 21.334 42.6679 21.3813C44.3235 21.9962 47.5402 22.2327 47.3982 19.631C47.3036 17.3131 44.6546 15.6575 42.7152 15.0426C41.2015 14.4749 38.5998 14.3803 38.3632 16.5563ZM42.2421 16.7928C43.3774 17.1712 44.8438 17.9754 45.4115 19.1107C46.121 20.5298 43.8505 19.8202 43.1882 19.5364C43.1882 19.5364 43.1882 19.5364 43.1409 19.5364C42.1948 19.0634 41.1069 18.4484 40.5392 17.5024C39.6404 16.0832 41.3434 16.4617 42.2421 16.7928Z" fill="#FEC51C"/>
<path d="M98.9593 36.1873C96.5941 33.2544 92.9044 35.4304 90.0662 34.2478C93.9924 22.4219 84.6263 12.6773 75.1183 7.0955C62.3463 -0.331182 47.0672 -1.56108 32.7815 1.70288C24.3141 3.64233 14.9007 8.56191 10.9272 16.6981C9.60265 16.6981 8.23084 16.4616 7.09555 16.1305C5.91296 15.7994 4.82498 15.3736 3.59508 15.7521C1.56102 16.4143 0.283821 18.543 0.0473029 20.577C-0.0473045 21.665 0.14191 22.5638 0.473036 23.6045C0.851466 24.929 0.236518 25.7805 0.283821 27.1523C0.283821 28.9498 1.13529 30.5581 2.50709 31.5515C1.79754 33.491 1.75024 35.3831 2.83822 37.0387C3.68969 38.3159 5.06149 38.4578 6.4806 38.3159C6.76443 38.9782 7.09555 39.6404 6.90634 40.4919C6.52791 42.3367 6.33869 43.8032 7.80511 45.2223C5.1561 51.561 6.4333 58.6565 10.6906 64.1437C15.8467 70.719 24.3141 74.456 32.0719 76.9157C41.2015 79.8013 50.8515 80.6527 60.3595 79.3282C68.1173 78.2402 76.2535 76.0643 81.8827 70.2932C84.6736 67.4077 86.2819 63.6234 86.5658 59.6499C86.6604 58.0889 86.7077 55.1087 85.9508 52.9328C86.14 52.9801 86.3292 52.9801 86.5658 53.0274C88.0322 53.2166 89.5932 53.3585 90.965 52.7909C92.2895 52.2232 93.4248 51.0406 93.8505 49.6215C94.1343 48.7227 93.8978 47.5875 94.2763 46.7833C94.702 45.7426 96.263 45.0804 97.1145 44.4181C99.4324 42.4787 101.183 38.9309 98.9593 36.1873ZM18.6377 12.1097C21.9962 8.94034 26.2535 6.95359 30.6528 5.62908C42.8098 2.034 56.8117 2.22322 68.4957 7.37932C77.2469 11.2582 88.1741 18.5903 87.7483 29.3282C87.6064 32.4976 86.6131 35.9508 83.964 37.9848C80.9839 40.3027 76.7739 41.2015 73.1315 41.8164C70.3406 42.2894 67.5024 42.526 64.6641 42.6679C64.4276 42.6206 64.1911 42.6206 64.0019 42.7152C58.6093 42.9044 53.2167 42.6206 47.9186 41.9583C47.824 41.9583 47.7294 41.9583 47.6348 41.9583C40.6339 40.9649 33.6802 39.3566 27.0577 36.8968C21.4286 34.7209 13.1977 31.2204 12.4409 24.314C11.9678 19.7729 15.4683 15.0425 18.6377 12.1097ZM76.8685 53.8788C76.2062 54.0681 74.9763 52.3651 74.5979 51.9394C73.0369 50.0473 71.334 47.4928 69.3472 45.5061C70.7663 45.3642 72.1854 45.175 73.6045 44.9858C75.7332 44.6546 77.9565 44.1816 80.0378 43.472C79.5648 45.6007 79.281 47.824 78.5714 49.9053C78.3822 50.5203 77.6254 53.6896 76.8685 53.8788ZM78.0984 57.7104C77.6727 59.0823 75.7805 59.3188 74.5506 59.2242C73.7465 59.1769 73.7465 57.947 74.5506 57.947C75.071 57.947 75.544 57.8051 76.017 57.5685C76.4901 57.3793 76.8685 57.0482 77.3415 56.9536C77.8146 56.9536 78.2403 57.2374 78.0984 57.7104ZM65.894 53.0274C65.8467 53.0274 65.8467 53.0274 65.7994 53.0274C63.9073 53.4058 62.9139 53.0747 61.3529 52.034C60.4541 51.4191 59.65 50.9933 58.5147 51.0879C57.7105 51.1352 56.9536 51.3718 56.2441 51.7502C56.9063 50.6149 57.7105 49.7161 59.508 50.1419C60.7852 50.4257 61.9205 51.1352 63.2923 50.8987C65.0426 50.6622 65.8467 48.912 67.4078 48.4862C67.4551 48.5335 67.4551 48.5335 67.5024 48.5808C68.3065 49.385 69.0634 50.2838 69.7729 51.1352C68.3065 51.1352 67.1712 52.2232 65.894 53.0274ZM66.2252 58.893C65.3737 61.5893 60.0284 61.5893 57.947 60.6906C57.3794 60.4541 57.8051 59.5553 58.3728 59.6972C59.65 60.0283 61.1637 59.6499 62.4409 59.3661C63.5289 59.0823 64.3803 58.3727 65.421 58.0889C65.894 57.947 66.4144 58.3727 66.2252 58.893ZM52.1287 55.3453C51.7502 55.5818 51.2772 55.6764 50.7096 55.6291C48.7228 55.4872 47.5402 55.2507 45.5535 55.771C44.5128 56.0548 43.4721 56.5279 42.526 55.5345C42.0057 54.9668 41.8165 53.5477 41.5326 52.8855V52.8382C42.8571 53.0274 44.1816 53.0747 45.3169 52.9328C49.1958 52.4597 52.7909 49.4796 53.9735 45.7426C57.474 45.9791 60.9745 46.0264 64.4749 45.8845C64.9953 46.3576 65.5156 46.7833 66.036 47.209C65.6575 47.3982 65.3264 47.6821 64.9953 48.0132C62.3936 50.3311 60.9745 48.2024 58.2781 48.4389C57.0009 48.5335 56.1022 49.3377 55.4399 50.4257C54.2573 52.1759 53.5005 53.7842 52.1287 55.3453ZM53.9262 60.1702C52.8382 61.0217 50.9934 60.596 49.9054 59.9337C49.2904 59.5553 49.7162 58.6092 50.3784 58.7511C50.9461 58.893 51.5137 59.035 52.0814 59.0823C52.6017 59.1296 53.1693 59.0349 53.6897 59.2242C54.0208 59.3661 54.2573 59.8864 53.9262 60.1702ZM25.9224 46.9252C25.8751 46.9252 25.8278 46.8779 25.7805 46.8779C25.8278 46.8779 25.9224 46.8779 25.9697 46.8779C29.0445 46.5468 32.1665 44.8911 34.2479 42.526C34.9574 42.7152 35.7143 42.9044 36.4711 43.0936C33.6329 45.648 29.6121 47.824 25.9224 46.9252ZM30.842 53.5477C29.4702 54.1627 27.105 53.5477 26.4901 52.0813C26.2535 51.4664 26.8685 50.8987 27.3888 51.3718C27.8619 51.7975 28.3349 52.1286 28.9972 52.2232C29.6121 52.3651 30.2271 52.2705 30.7947 52.5543C31.2204 52.7909 31.2204 53.4058 30.842 53.5477ZM10.5014 38.9782C10.4541 38.5051 10.2649 38.1267 10.0284 37.7483C11.1637 38.4578 11.0691 40.3027 12.3463 41.1542C13.3869 41.8637 14.5695 41.6745 15.6575 41.9583C14.5222 42.1948 13.6235 42.9044 12.3463 43.2355C11.2583 43.7086 10.4068 43.2828 9.88647 42.0056C9.98108 41.7691 10.0284 41.5799 10.123 41.3434C10.1703 40.4919 10.596 39.877 10.5014 38.9782ZM12.6301 38.6944C12.3463 38.174 12.1097 37.701 11.8259 37.2753C13.7654 37.086 15.7048 37.086 17.6443 37.1806C17.2658 38.1267 17.0766 39.2147 16.982 40.2554C16.7928 40.1608 16.6036 40.0662 16.3671 40.0189C14.9007 39.5931 13.4342 40.3027 12.6301 38.6944ZM17.8335 49.385C18.4011 50.3784 19.3472 50.9933 20.4352 51.3244C21.3813 51.6083 22.3746 51.6556 23.2734 52.1759C23.6991 52.4597 23.6045 53.0747 23.1315 53.2166C20.719 54.0208 17.4551 52.2705 16.6982 49.858C16.4617 49.1485 17.4551 48.7701 17.8335 49.385ZM20.8136 43.8032C20.6717 43.5666 20.5298 43.3774 20.4825 43.1409C19.7729 41.2488 20.5298 39.5458 21.0974 37.7956C21.2394 37.8429 21.3813 37.9375 21.4759 37.9848C20.9555 39.6404 20.4352 42.3367 22.3746 42.526C23.368 42.6206 24.3614 41.6745 25.071 41.1069C25.4494 40.7757 25.9224 40.4446 26.3009 40.0662C26.3955 40.1135 26.4901 40.1135 26.5374 40.1608C25.7332 41.3907 25.2129 43.2355 26.7266 43.8032C27.5781 44.1343 28.666 43.6613 29.4229 43.2355C30.0851 42.8571 30.7474 42.3367 31.3623 41.7691C31.7881 41.911 32.2138 42.0056 32.6395 42.1475C30.8893 43.6139 28.9972 44.6073 26.5847 44.9858C24.2195 45.2696 22.6585 44.8438 20.8136 43.8032ZM22.4693 39.735C22.5166 39.3093 22.6112 38.8836 22.7058 38.5051C23.4153 38.8363 24.0776 39.1201 24.7871 39.4039C24.3141 39.8297 23.8884 40.2081 23.368 40.5392C23.1315 40.7284 22.7531 41.1542 22.422 40.8703C22.3273 40.7757 22.4219 39.877 22.4693 39.735ZM27.3415 41.8637C27.3888 41.7691 27.3888 41.7218 27.4361 41.6272C27.5781 41.2488 27.7673 40.9176 27.9092 40.5865C28.4295 40.7757 28.9499 40.9649 29.4702 41.1069C29.1391 41.3907 28.7606 41.6745 28.3349 41.8637C28.1457 41.9583 27.6727 42.1948 27.4834 42.1475C27.2469 42.2421 27.1996 42.1475 27.3415 41.8637ZM32.1665 55.9602C33.018 56.2913 33.8694 56.6698 34.7682 56.859C35.7143 57.0482 36.6604 57.0955 37.5591 57.332C38.0322 57.4739 38.1268 58.2781 37.5591 58.3727C35.667 58.6565 33.018 58.3254 31.5516 56.9063C31.2204 56.5752 31.5989 55.7237 32.1665 55.9602ZM36.8496 46.8779C37.8903 45.9791 38.7417 44.8911 39.2621 43.7086C41.5799 44.1816 43.9451 44.56 46.263 44.8911C43.9451 47.7767 40.2081 49.385 36.8496 46.8779ZM47.9186 45.1277C48.8647 45.2223 49.7635 45.3169 50.7096 45.4115C49.2431 47.5875 47.5875 49.3377 44.6074 49.6215C43.8978 49.6688 43.2356 49.6688 42.526 49.6215C44.7493 49.0066 46.7834 47.3509 47.9186 45.1277ZM66.7928 55.5818C66.8874 55.2034 67.2658 55.0141 67.6443 55.1087C68.07 55.156 68.4957 55.156 68.9215 55.156C69.3472 55.1087 69.7729 54.9668 70.1514 55.2507C70.4352 55.4399 70.5298 55.7237 70.3406 56.0548C70.0568 56.5752 69.4418 56.6225 68.9215 56.6225C68.3538 56.6698 67.8335 56.5752 67.2658 56.4806C66.8874 56.3859 66.6982 55.9602 66.7928 55.5818ZM4.87228 19.0633C5.86566 19.016 7.09555 19.5837 8.18354 19.7256C8.75118 19.7729 9.27152 19.7729 9.74456 19.7256C9.64995 20.0567 9.55534 20.4351 9.46074 20.7663C9.36613 21.2393 9.27152 21.7123 9.22422 22.1854C8.79849 22.6111 8.27814 23.1314 7.80511 23.6991C7.7105 23.5572 7.61589 23.368 7.47398 23.2261C7.14286 22.8003 3.54778 19.6783 4.87228 19.0633ZM3.54778 27.1523C3.54778 26.3481 4.06812 25.6385 4.16272 24.7871C4.25733 23.2734 2.98013 22.1381 3.31126 20.577C3.31126 20.6244 3.35856 20.719 3.35856 20.7663C3.68969 21.5704 4.25733 22.2327 4.87228 22.8476C5.58183 23.6045 6.05487 24.314 6.4333 25.1655C5.58184 26.2062 4.68306 27.3415 3.92621 28.4768C3.73699 28.0983 3.54778 27.6726 3.54778 27.1523ZM7.7105 34.5789C7.37937 34.6262 6.33869 35.0993 6.00757 34.9574C5.01419 34.5789 5.39262 33.6802 5.58183 32.9706C5.91296 31.8826 6.52791 30.842 7.14286 29.8959C7.89972 28.7606 8.70388 27.6726 9.60265 26.6319C10.4541 29.4701 12.4409 31.9299 14.8534 33.9167C12.4882 33.8694 10.0757 34.1532 7.7105 34.5789ZM82.7815 62.63C81.7408 65.9886 79.4229 68.4957 76.5847 70.4824C71.2394 74.2194 64.5222 75.6385 58.1362 76.3481C43.8505 77.9091 26.9631 74.5033 15.894 64.8533C10.6906 60.3121 8.04163 53.0747 10.7852 46.5468C10.8325 46.5468 10.8798 46.5468 10.8798 46.5468C10.6433 47.6348 10.6433 48.7227 11.0691 49.7634C11.7786 51.4191 13.4816 52.1759 14.5695 53.5477C16.6982 56.244 19.4891 56.3859 22.6585 57.1901C26.1116 58.0416 28.7133 60.6433 32.2611 61.1636C34.579 61.4947 36.8969 61.3055 39.2621 61.8259C41.438 62.2989 43.5667 63.1031 45.6954 63.7653C50.0946 65.1371 54.21 63.9545 58.7039 64.0964C60.596 64.1437 62.4882 64.5222 64.333 64.4276C66.3671 64.333 67.8808 63.4815 69.7729 62.9138C71.9016 62.2989 74.0776 62.8192 76.2062 62.2989C77.8146 61.9205 79.3283 61.0217 80.4636 59.8391C81.6462 58.5619 82.5922 56.9063 83.0653 55.1087C83.2072 56.0075 83.2545 56.9536 83.2545 57.4739C83.4437 59.2715 83.2545 61.0217 82.7815 62.63ZM82.2138 48.1551C82.5922 46.263 82.7815 44.2762 82.5449 42.4314C85.0993 41.2015 87.3699 39.4985 88.8363 37.0387C89.7824 37.6064 90.965 37.8429 92.1003 37.8902C92.3841 37.8902 92.7625 37.8902 93.1883 37.8429C92.6206 39.3093 92.6206 41.2488 90.965 41.6272C90.2081 41.8164 89.4986 41.438 88.6944 41.8164C88.1741 42.0529 87.701 42.4787 87.3699 42.9517C85.9035 44.8911 85.5251 49.1485 82.2138 48.1551ZM96.5468 39.877C96.0738 41.5799 93.9924 42.3367 92.7625 43.3774C91.7219 44.2762 91.1542 45.2223 90.9177 46.5468C90.5393 48.6281 90.492 49.9526 88.0322 49.858C87.0388 49.8107 86.0454 49.4796 85.0047 49.1958C86.2346 48.6754 87.1807 47.5402 87.7483 46.0737C87.9849 45.5061 88.0795 44.7019 88.4579 44.2289C89.6405 42.6206 90.1135 43.2828 91.3434 43.0936C91.8638 43.0463 92.3368 42.9044 92.7625 42.5733C93.3302 42.1002 93.6613 41.438 93.8978 40.7284C94.0397 40.35 94.0397 39.877 94.1816 39.5458C94.4655 38.9309 95.1277 38.2686 95.8373 37.9375C96.4995 38.2213 96.878 38.789 96.5468 39.877Z" fill="#FEC51C"/>
<path d="M8.65653 29.8014C8.18349 30.0852 7.85236 30.5582 7.52124 30.9367C7.19011 31.3624 6.76438 31.7408 6.62247 32.2612C6.48056 32.7342 7.0009 33.1126 7.42663 32.8761C7.89967 32.6396 8.23079 32.1193 8.56192 31.7408C8.94035 31.3151 9.27148 30.9367 9.46069 30.4163C9.69721 29.9906 9.08226 29.5649 8.65653 29.8014Z" fill="#FEC51C"/>
<path d="M71.3339 18.8267C71.4285 18.8267 71.4758 18.7794 71.5704 18.7321C73.2261 17.928 75.6386 15.7047 73.5099 14.0018C71.6177 12.4881 68.3065 13.3868 66.509 14.5694C65.2318 15.4209 63.8599 17.2184 65.2791 18.5902C66.7455 20.1039 69.5837 19.5363 71.3339 18.8267ZM67.455 16.225C68.5903 15.4682 70.1513 14.9951 71.4758 15.1844C73.4626 15.4682 71.5231 16.6981 70.6244 17.1711C70.6244 17.1711 70.6244 17.1711 70.5771 17.1711C69.6783 17.5022 68.6849 17.7388 67.7388 17.6442C66.367 17.5969 66.2724 16.9819 67.455 16.225Z" fill="#FEC51C"/>
<path d="M77.1996 47.0198C76.7266 48.297 76.2062 49.7161 75.8751 51.0406C75.6859 51.7029 76.632 52.0813 76.9631 51.5137C77.72 50.2838 78.1457 48.6281 78.193 47.209C78.2403 46.5468 77.3888 46.4995 77.1996 47.0198Z" fill="#FEC51C"/>
<path d="M83.491 32.7342C83.3491 33.4437 84.2479 33.8222 84.6263 33.2072C87.701 28.5241 84.9574 22.8477 81.4569 19.3472C81.0312 18.8742 80.1797 19.4891 80.5582 20.0568C83.3964 23.983 84.5317 27.9092 83.491 32.7342Z" fill="#FEC51C"/>
<path d="M56.4333 19.1106C54.8723 19.2998 52.6017 20.2932 53.2167 22.28C53.8316 24.314 56.8591 24.8817 58.7512 24.8344C58.8458 24.8344 58.8931 24.8817 59.035 24.8344C60.7853 24.6924 63.9546 23.6991 62.772 21.2866C61.684 19.2052 58.4674 18.8741 56.4333 19.1106ZM60.9272 21.9961C61.1637 22.9422 59.4608 23.0368 58.9404 23.0368C58.8931 23.0368 58.8931 23.0368 58.8458 23.0368C57.7578 22.9422 53.0748 21.9488 55.9603 21.0501C57.1429 20.7189 58.6566 20.8135 59.7919 21.2393C60.0757 21.3812 60.8799 21.665 60.9272 21.9961Z" fill="#FEC51C"/>
<path d="M80.4163 62.0149C79.6121 62.8664 78.9499 63.9544 78.2403 64.9005C77.4361 65.9411 76.632 66.8872 75.7332 67.8333C75.2602 68.3063 75.8751 69.1578 76.4428 68.7794C77.6254 67.9279 78.9026 66.9345 79.8959 65.8465C80.7947 64.8532 81.7408 63.7179 81.5043 62.2988C81.4097 61.8257 80.7474 61.6838 80.4163 62.0149Z" fill="#FEC51C"/>
</g>
<defs>
<clipPath id="clip0_101_30">
<rect width="100" height="79.9432" fill="white"/>
</clipPath>
</defs>
</svg>
