<svg width="100" height="93" viewBox="0 0 100 93" fill="none" xmlns="http://www.w3.org/2000/svg">
<g clip-path="url(#clip0_101_51)">
<path d="M44.25 54.898C37.1984 53.4309 27.3073 54.0462 22.9059 60.7191C17.7947 68.4806 27.0233 75.7215 33.365 78.3244C33.507 78.3718 33.6489 78.4191 33.7909 78.4191C40.038 80.7854 47.9414 81.4006 54.2358 79.0343C59.2524 77.1886 63.3224 72.6926 61.666 67.0608C59.5836 59.9619 50.8283 56.2232 44.25 54.898ZM52.2954 76.2894C46.569 77.9932 40.038 77.3306 34.4535 75.3429C34.3588 75.2956 34.3115 75.2482 34.2169 75.2009C29.8629 73.4025 21.7228 67.8654 25.7455 62.2809C29.5789 56.9804 38.0503 56.8857 43.7767 58.1162C49.0299 59.252 56.5548 62.0916 58.4478 67.7707C60.0096 72.1247 56.0815 75.1536 52.2954 76.2894Z" fill="#2B1000"/>
<path d="M99.9527 21.2493C99.6687 19.1196 98.9115 16.3274 96.9711 15.1442C95.3621 14.1504 93.7056 14.1504 92.0966 14.7183C93.1377 13.1565 93.9896 11.4055 93.5163 9.51243C92.4278 4.9218 86.0861 1.56165 82.584 5.53704C78.514 10.0803 75.2958 15.8541 72.2669 21.1073C72.4562 20.4448 72.6455 19.7822 72.8822 19.167C73.6867 16.564 75.4851 13.2512 74.3493 10.5063C73.3554 8.04532 70.7998 7.05148 68.3389 6.62554C65.7359 6.19961 63.8902 6.53089 62.6597 8.99185C61.8552 10.6009 61.1453 12.2573 60.5301 13.9611C60.2461 12.068 59.2523 10.459 57.4065 9.37045C55.3715 8.13998 51.9167 6.81485 49.6924 8.32928C48.6512 9.03917 47.9887 10.2223 47.5627 11.5948C45.433 9.89104 41.8363 8.94452 39.8959 9.79639C40.1325 8.61324 40.3218 7.43009 40.4165 6.24693C40.7478 1.2777 35.3999 -0.520695 31.2352 0.14187C28.443 0.567804 27.2125 2.98143 26.5973 5.72635C26.1713 4.96913 25.6034 4.30656 24.8935 3.78598C21.77 1.467 13.2513 2.60283 13.3933 7.57206C13.4406 10.033 14.3871 12.636 15.1444 15.0969C12.9674 13.5825 10.6484 12.21 8.28207 11.2162C5.0639 9.84372 2.6976 11.2162 1.18316 14.2924C-0.189293 16.99 -0.946511 20.918 2.17701 22.8111C3.92808 23.8522 5.91577 24.4201 7.71416 25.414C8.5187 25.8873 9.32325 26.3605 10.0805 26.8811C9.84383 27.1177 9.70186 27.449 9.65453 27.875C9.27592 31.661 9.51255 35.3998 9.46523 39.1859C9.37057 42.6407 9.4179 46.0955 9.51255 49.5503C9.70186 56.9805 9.89116 64.4107 10.6011 71.7935C11.027 76.1949 11.1216 82.3946 15.9016 84.4296C18.1732 85.4235 20.7762 85.8494 23.1425 86.37C31.7558 88.263 40.4638 89.8248 49.1718 91.1499C52.4373 91.6705 55.7028 92.1438 58.9683 92.4277C59.7728 92.475 60.6247 92.5697 61.4293 92.475C64.4581 92.0964 65.6413 89.4462 67.0137 86.9852C71.2258 79.555 74.5386 71.5569 77.8514 63.7008C81.3062 55.5607 84.4297 47.2786 87.3166 38.9019C87.5533 38.2394 87.3639 37.7188 86.9853 37.3875C88.3578 36.015 89.7776 34.6426 91.2447 33.3648C93.2797 31.5664 95.6933 30.0993 97.5864 28.1589C99.4794 26.2185 100.284 23.8996 99.9527 21.2493ZM79.2712 36.5356C78.4193 36.299 77.5675 36.1097 76.7156 35.9677C79.0819 32.6549 81.4482 29.3421 84.0511 26.2185C85.1396 24.8934 87.4586 21.6752 89.8722 19.5929C89.9669 21.2966 91.1974 23.4263 91.8126 24.7041C92.0492 25.272 92.3332 25.698 92.6171 26.0766C87.7426 28.7268 82.6787 32.2289 79.2712 36.5356ZM94.8888 17.8891C96.7345 18.7883 97.0658 21.8645 96.4032 23.9469C96.0719 24.2308 95.7407 24.4675 95.2674 24.6095C93.9423 25.0827 93.8003 24.6095 93.2324 23.4263C92.8064 22.4325 92.3805 21.4386 92.0019 20.4448C91.7653 19.8768 91.4813 19.2143 91.7653 18.5517C91.8599 18.4097 92.1912 18.0311 92.4752 17.7945C93.3744 17.6052 94.1789 17.5579 94.8888 17.8891ZM83.7198 9.41778C84.5244 8.28195 85.3289 6.9095 86.8434 7.05148C87.9792 7.19345 89.399 8.47126 89.9196 9.51243C91.1027 11.8314 88.0738 14.7656 86.8907 16.6113C85.8495 18.2678 84.7137 19.9242 83.6725 21.5806C79.7918 25.9346 76.053 30.6199 72.9768 35.5891C71.0838 35.6364 69.2854 36.0624 67.5816 36.7249C71.5097 29.3894 75.2485 22.0065 79.8391 15.0023C81.0696 13.1565 82.3947 11.2635 83.7198 9.41778ZM63.9849 13.9138C64.4108 12.8726 64.7894 11.2635 65.5466 10.3643C66.3512 9.37045 67.8183 9.79639 68.9541 10.1277C70.4212 10.5536 71.557 11.4528 71.2731 13.1092C71.0838 14.245 70.5632 15.3809 70.2319 16.4694C69.4274 19.025 68.6701 21.5806 67.8656 24.1362C66.3512 29.0581 64.4581 34.0273 63.3223 39.0439C62.1865 39.7538 61.098 40.511 60.0095 41.2682C59.6782 38.192 59.1103 35.1632 58.3057 32.2289C58.5897 30.8092 59.063 29.3421 59.3469 28.1116C59.9622 25.698 60.6247 23.2843 61.3819 20.8707C62.1391 18.5517 63.0383 16.2327 63.9849 13.9138ZM43.0194 29.4367C43.256 29.8626 43.4454 30.3359 43.682 30.7618C42.8774 35.9677 41.9309 41.3629 41.7416 46.6634C41.0317 46.4741 40.3218 46.1901 39.6593 45.8589C39.8486 39.6591 40.9371 33.838 42.2622 27.9223C42.4988 28.4902 42.7828 28.9635 43.0194 29.4367ZM46.001 36.0624C47.3734 39.5645 48.5092 43.2086 49.3611 46.9C47.752 47.2786 46.0956 47.4206 44.2972 47.184C45.0071 43.5399 45.4804 39.8011 46.001 36.0624ZM52.4846 45.8589C51.5381 41.7888 50.2603 37.8134 48.6512 33.9327C47.7993 31.8503 46.8528 29.8153 45.8117 27.8276C44.8651 26.0292 43.3507 24.0889 44.5338 22.3378C46.0956 26.3132 47.9887 30.0993 49.5031 34.0747C50.9702 37.7661 52.7213 41.5049 53.4312 45.4329C53.1472 45.5749 52.8159 45.7169 52.4846 45.8589ZM54.9456 44.6284C54.1884 40.8896 52.532 37.3402 51.0648 33.8854C49.3138 29.7207 47.6574 25.3667 45.5277 21.344C50.355 17.6998 52.7213 25.7453 53.8571 29.0581C54.5197 30.9511 55.0402 32.8442 55.5135 34.7372C55.5608 35.1158 55.6555 35.4471 55.7501 35.7784C56.318 38.2394 56.7913 40.7476 57.1699 43.2559C56.46 43.6819 55.7028 44.1551 54.9456 44.6284ZM56.9806 12.9672C58.4004 14.7656 57.3119 17.9365 56.9333 19.9715C56.6493 21.6752 56.2707 23.379 55.8448 25.0354C55.7028 24.7041 55.5608 24.3728 55.4188 24.0415C54.567 22.0065 53.7151 19.7349 51.9167 18.3624C52.2953 16.99 52.4846 15.5702 52.8159 14.1977C53.0525 13.1565 53.3838 12.1627 53.6678 11.1215C55.0876 11.5001 56.46 12.3047 56.9806 12.9672ZM50.213 14.671C50.4023 13.9138 50.5443 12.1154 51.1122 11.5001C51.3488 11.2635 51.6801 11.0742 52.0587 11.0269C51.8221 11.6894 51.7747 12.4466 51.6328 12.9672C51.2542 14.529 50.9229 16.1381 50.8755 17.7472C50.4496 17.5579 50.0237 17.4159 49.5977 17.3212C49.8344 16.422 50.0237 15.5228 50.213 14.671ZM46.6635 15.1442C46.5215 15.9015 46.4269 16.6113 46.2849 17.2266C46.2849 17.2739 46.2849 17.3212 46.2849 17.4159C45.9063 17.5105 45.5277 17.6525 45.1491 17.7945C43.1614 18.6464 41.363 20.3501 40.8897 22.5271C40.6531 23.6629 40.8424 24.7988 41.2683 25.8399C40.1325 29.6733 39.1387 33.6961 38.5234 37.7188C38.1922 33.6961 38.0502 29.7207 38.1448 25.6506C38.2395 22.7637 38.4288 19.8295 38.7127 16.9426C39.0914 15.7595 39.6119 14.671 40.2745 13.7718C42.1202 11.1215 44.5812 13.7245 46.6635 15.1442ZM37.1037 5.30041C37.293 6.38891 36.6304 8.13998 36.4411 9.22848C36.0152 11.5475 35.6839 13.9138 35.4472 16.2801C34.4534 25.414 34.69 34.9265 36.5831 43.9658C35.9678 43.4452 35.3999 42.8773 34.8793 42.2147C34.6427 41.9308 34.4061 41.5995 34.2168 41.3156C33.6015 35.4471 33.3176 29.7207 33.4595 23.7576C33.6015 16.99 34.1221 10.317 34.8793 3.59667C35.8258 3.73865 36.9144 4.16459 37.1037 5.30041ZM29.9101 6.48356C30.1467 5.39506 30.336 4.21191 31.3299 3.644C31.9924 3.26539 32.797 3.26539 33.5542 3.36004C32.2764 10.0803 31.9924 16.8953 31.8031 23.7103C31.7085 28.0169 31.4719 32.6076 31.7558 37.0562C31.3772 36.2517 30.9513 35.4944 30.5253 34.7372C31.1406 29.0581 30.194 22.9057 29.2949 17.3212C29.1055 16.0908 28.9162 14.8603 28.6796 13.6771C28.7743 13.5351 28.8216 13.3458 28.8689 13.1092C29.2002 10.8849 29.3895 8.66056 29.9101 6.48356ZM24.7989 9.18115C25.7927 12.7779 26.2187 16.706 26.7392 20.4448C27.2125 23.8996 27.3072 27.3544 27.4491 30.8092C27.1179 30.4779 26.7392 30.1939 26.3133 29.91C26.3133 25.9346 25.4614 21.8645 24.8462 17.9838C24.1836 13.9611 23.2844 9.98569 22.1486 6.10495C23.3791 6.43624 24.3256 7.38276 24.7989 9.18115ZM17.0374 7.00415C17.5107 6.43624 17.7946 6.38891 18.5045 6.19961C19.309 6.0103 20.0189 5.86832 20.7288 5.86832C21.6754 9.89104 22.5272 13.9138 23.1898 17.9365C23.7577 21.4859 23.947 25.13 24.3729 28.7268C23.8524 28.4902 23.2844 28.2536 22.6692 28.1116C21.8173 27.875 20.9181 27.733 20.0189 27.6383C20.1136 22.7164 19.0724 17.8891 17.8893 13.1092C17.558 11.7841 17.2267 10.5063 16.8954 9.18115C16.7061 8.28195 16.3748 7.80869 17.0374 7.00415ZM5.91577 13.7718C6.95694 13.6771 8.3294 14.7656 9.18127 15.2862C11.5949 16.706 14.0085 18.1731 16.2329 19.8768C16.2802 19.9242 16.3275 19.9242 16.4222 19.9715C16.5168 20.4448 16.6115 20.9653 16.7061 21.4386C15.2863 20.2555 13.5826 19.2143 12.2101 18.3624C9.89116 16.8953 7.2409 15.5702 4.59064 14.7656C4.96925 14.245 5.39518 13.8191 5.91577 13.7718ZM5.20588 20.5867C3.02888 19.6875 2.98155 18.5044 3.7861 16.4694C3.83342 16.2801 3.92808 16.0908 4.02273 15.9015C6.43636 16.99 8.84999 18.0785 11.1216 19.5456C12.4941 20.4448 13.8192 21.3913 15.097 22.4798C15.8542 23.095 16.4695 23.8049 17.2267 24.4201C17.3687 25.4613 17.5107 26.4552 17.6053 27.4963C16.4695 27.4017 15.2863 27.307 14.1978 27.0231C12.6834 25.13 10.743 23.4736 8.66068 22.2431C7.57218 21.5806 6.38903 21.06 5.20588 20.5867ZM61.0033 89.2569C61.0506 89.2569 61.0506 89.2569 61.0033 89.2569ZM67.629 78.8451C66.2092 81.8267 64.7421 84.9975 62.849 87.7424C62.3285 88.4997 61.8552 89.0676 60.956 89.3042C60.9087 89.3042 60.9087 89.3042 60.8613 89.3042C60.4827 89.3042 60.1041 89.3042 59.7255 89.2569C56.9806 89.1149 54.2357 88.6416 51.5381 88.263C43.4453 87.0325 35.3526 85.6128 27.3072 83.9563C24.3729 83.3411 21.4387 82.7732 18.5518 81.9213C17.8893 81.732 16.9901 81.4481 16.7534 81.3061C14.3871 79.7443 14.2452 76.1476 13.9612 73.6393C13.1567 65.8778 12.8727 58.069 12.6834 50.2602C12.5887 46.8054 12.5414 43.3506 12.5887 39.8484C12.6834 36.2043 12.4468 32.5602 12.6834 28.9161C12.8727 29.0108 13.0147 29.0581 13.204 29.1528L13.2513 29.2001C13.3933 29.3421 13.5826 29.3894 13.7719 29.3894C15.9489 30.1939 18.2679 30.4779 20.7288 30.9985C24.6096 31.803 26.5499 34.3586 28.3483 37.7188C29.8628 40.5583 31.2352 43.5399 33.6015 45.8115C35.9678 48.0359 38.9494 49.5503 42.1202 50.1655C45.3384 50.8281 48.3199 50.5441 51.1595 49.6923C51.4908 49.6923 51.8694 49.5503 52.1533 49.361C55.3715 48.2252 58.4004 46.3321 61.4293 44.2498C64.6001 42.0254 68.1022 39.1859 72.0776 38.7599C75.6744 38.334 79.3185 39.2332 82.868 39.9431C83.01 40.0378 83.1993 40.1324 83.3886 40.1797C78.8453 53.2891 73.6394 66.2564 67.629 78.8451ZM83.1519 37.5768C82.4894 37.3875 81.8268 37.1982 81.1642 37.0089C84.7137 32.8915 89.4936 29.6733 94.0369 26.7865C94.1316 26.7865 94.1789 26.7865 94.2736 26.7865C93.3744 27.5437 92.3332 28.2062 91.434 28.9635C88.3105 31.4244 85.4709 34.3113 83.1519 37.5768Z" fill="#2B1000"/>
<path d="M15.4757 42.9247C15.523 42.1202 14.2925 42.1202 14.2452 42.9247C13.7246 49.5503 13.772 56.6019 15.0498 63.1803C15.1917 63.7955 16.1856 63.6535 16.1383 63.0383C15.7596 56.2706 15.2864 49.6923 15.4757 42.9247Z" fill="#2B1000"/>
<path d="M53.9989 64.6474C53.289 64.2214 52.6738 65.3099 53.3837 65.7359C54.4722 66.3984 54.9928 67.3449 55.7027 68.3861C56.0813 68.9067 56.9332 68.5754 56.7439 67.9602C56.4126 66.4931 55.1821 65.3572 53.9989 64.6474Z" fill="#2B1000"/>
<path d="M75.0119 52.8158C73.4502 56.9332 71.8884 61.0506 70.0427 65.0733C68.3863 68.6701 66.162 72.1249 64.6949 75.8163C64.4582 76.3842 65.3574 76.8575 65.736 76.4316C68.339 73.1661 70.1374 68.954 71.8411 65.1679C73.5922 61.2872 75.1066 57.3118 76.2424 53.1944C76.4317 52.3899 75.2959 52.1059 75.0119 52.8158Z" fill="#2B1000"/>
<path d="M62.6598 31.8502C63.3697 30.1464 64.0796 28.3954 64.4109 26.597C64.5056 26.0291 63.6537 25.5558 63.3697 26.1711C62.5652 27.8275 62.0919 29.6732 61.666 31.4242C61.5713 32.0395 62.4232 32.4654 62.6598 31.8502Z" fill="#2B1000"/>
<path d="M62.707 25.9821C63.133 25.1776 63.5589 24.1838 63.6536 23.2846C63.7009 22.7166 62.9437 22.622 62.707 23.0006C62.2338 23.7105 61.9498 24.7517 61.8078 25.5562C61.6659 26.1241 62.4231 26.5027 62.707 25.9821Z" fill="#2B1000"/>
<path d="M76.0057 26.2657C76.3844 25.6031 76.7156 24.9406 76.9996 24.1833C77.1889 23.6154 76.2897 23.2368 76.0531 23.7574C75.7691 24.42 75.4852 25.0825 75.1539 25.6978C74.7753 26.313 75.6745 26.8336 76.0057 26.2657Z" fill="#2B1000"/>
<path d="M79.082 24.2784C79.4133 24.0418 79.6499 23.7105 79.8865 23.3319C80.1231 23.0006 80.3598 22.622 80.4071 22.2434C80.5018 21.7228 79.9338 21.3442 79.5079 21.7228C79.224 21.9594 79.082 22.2907 78.8453 22.5747C78.656 22.8586 78.4194 23.1426 78.2774 23.4265C78.0881 23.9944 78.6087 24.657 79.082 24.2784Z" fill="#2B1000"/>
<path d="M87.932 26.1239C87.3167 26.5498 86.7962 27.1177 86.1336 27.4963C85.5657 27.8276 86.0863 28.6795 86.6542 28.3955C87.3167 28.0169 88.074 27.591 88.5945 26.9757C88.7365 26.7864 88.8312 26.5025 88.6419 26.3132C88.4526 26.0292 88.1213 25.9346 87.932 26.1239Z" fill="#2B1000"/>
<path d="M21.0127 20.5866C21.06 21.2492 22.1012 21.2965 22.1012 20.5866C22.1012 20.3027 22.1012 20.0187 22.1012 19.7348C22.1012 19.4508 22.0065 19.1668 22.0065 18.8829C21.9592 18.5989 21.7699 18.3623 21.486 18.3623C21.202 18.3623 20.9654 18.5989 20.9654 18.8829C20.9654 19.1668 20.918 19.4508 20.9654 19.7348C20.918 19.9714 21.0127 20.2553 21.0127 20.5866Z" fill="#2B1000"/>
<path d="M20.3975 16.5641C20.5394 16.1382 20.4448 15.5229 20.1135 15.239C19.8296 14.955 19.309 15.0497 19.2143 15.4756C19.167 15.7596 19.167 16.1382 19.167 16.4221C19.2616 17.0847 20.1135 17.1793 20.3975 16.5641Z" fill="#2B1000"/>
<path d="M39.8959 20.0662C40.2271 20.1608 40.5584 19.9715 40.6531 19.6403C40.7951 19.2143 40.937 18.7884 41.0317 18.3624C41.079 18.0785 40.9844 17.8419 40.7004 17.7472C40.4638 17.6526 40.1798 17.7472 40.0378 17.9838C39.8012 18.4098 39.6119 18.883 39.4699 19.3563C39.3753 19.6403 39.6119 19.9715 39.8959 20.0662Z" fill="#2B1000"/>
<path d="M42.6407 17.5576C42.7827 17.321 42.9246 17.0844 43.0193 16.8478C43.1613 16.6111 43.3033 16.3272 43.3506 16.0432C43.4452 15.57 43.0193 15.1913 42.546 15.428C41.9308 15.7593 41.5995 16.5638 41.5522 17.2264C41.5049 17.8416 42.3567 17.9836 42.6407 17.5576Z" fill="#2B1000"/>
</g>
<defs>
<clipPath id="clip0_101_51">
<rect width="100" height="92.5225" fill="white"/>
</clipPath>
</defs>
</svg>
